<?xml version="1.0" encoding="UTF-8"?><svg id="Capa_1" xmlns="http://www.w3.org/2000/svg" xmlns:xlink="http://www.w3.org/1999/xlink" viewBox="0 0 1239 599"><defs><style>.cls-1{fill:url(#Degradado_sin_nombre_13);}.cls-2{opacity:.6;}.cls-3{fill:#0677ff;}.cls-4{clip-path:url(#clippath);}.cls-5{fill:none;}</style><clipPath id="clippath"><rect class="cls-5" x="-40.05" y="-19.83" width="1319.11" height="638.66"/></clipPath><linearGradient id="Degradado_sin_nombre_13" x1="-40.34" y1="612.9" x2="1277.08" y2="-12.48" gradientTransform="matrix(1, 0, 0, 1, 0, 0)" gradientUnits="userSpaceOnUse"><stop offset="0" stop-color="#0000bf"/><stop offset=".29" stop-color="#0101c2"/><stop offset=".58" stop-color="#0606ce"/><stop offset=".86" stop-color="#0e0ee2"/><stop offset="1" stop-color="#1414ef"/></linearGradient></defs><g class="cls-4"><g><rect class="cls-1" x="-40.08" y="-19.83" width="1319.89" height="638.66"/><g class="cls-2"><path class="cls-3" d="M11.46,88.17c.53,0,1.04-.21,1.41-.59l16.53-16.53h29.46l26.29,26.29c-.54,.94-.84,2.03-.84,3.2,0,3.59,2.91,6.5,6.5,6.5s6.5-2.91,6.5-6.5-2.91-6.5-6.5-6.5c-.97,0-1.88,.22-2.71,.6l-26.99-26.99c-.37-.38-.88-.59-1.41-.59H28.57c-.53,0-1.04,.21-1.41,.59l-16.53,16.53H-59.43c-.53,0-1.04,.21-1.41,.59l-29.08,29.08h-25.79l-15.36-15.36c-.37-.37-.88-.59-1.41-.59h-14.84c-1.07-2.11-3.26-3.56-5.79-3.56-3.59,0-6.5,2.91-6.5,6.5s2.91,6.5,6.5,6.5c3.23,0,5.9-2.36,6.41-5.44h13.39l15.36,15.36c.37,.37,.88,.59,1.41,.59h27.45c.53,0,1.04-.21,1.41-.59l29.08-29.08H11.46Z"/><path class="cls-3" d="M-109.78,34.03c.53,0,1.04-.21,1.41-.59l6.98-6.98H84.54l26.14,26.14c-.45,.89-.72,1.89-.72,2.96,0,3.59,2.91,6.5,6.5,6.5s6.5-2.91,6.5-6.5-2.91-6.5-6.5-6.5c-1.07,0-2.07,.26-2.96,.72l-26.73-26.73c-.38-.37-.88-.59-1.41-.59H-102.21c-.53,0-1.04,.21-1.41,.59l-6.98,6.98h-49.14c-.69-2.85-3.25-4.98-6.31-4.98-3.59,0-6.5,2.91-6.5,6.5s2.91,6.5,6.5,6.5c2.71,0,5.03-1.66,6.01-4.02h50.27Z"/><path class="cls-3" d="M13.57,99.83H-7.91c-.84-2.61-3.29-4.5-6.18-4.5-3.59,0-6.5,2.91-6.5,6.5s2.91,6.5,6.5,6.5c2.89,0,5.34-1.89,6.18-4.5H12.74l24.19,24.19c.38,.37,.88,.59,1.41,.59H116.35c.53,0,1.04-.21,1.41-.59l18.76-18.76c.83,.38,1.75,.6,2.72,.6,3.59,0,6.5-2.91,6.5-6.5s-2.91-6.5-6.5-6.5-6.5,2.91-6.5,6.5c0,1.16,.31,2.24,.84,3.19l-18.06,18.06H39.18l-24.19-24.19c-.37-.37-.88-.59-1.41-.59Z"/><path class="cls-3" d="M3.02,118.11l5.64,5.64c-.51,.93-.81,2-.81,3.14,0,3.59,2.91,6.5,6.5,6.5s6.5-2.91,6.5-6.5-2.91-6.5-6.5-6.5c-.99,0-1.93,.23-2.77,.63l-6.32-6.32c-.37-.37-.88-.59-1.41-.59H-61.25c-.84-2.61-3.29-4.5-6.18-4.5-3.59,0-6.5,2.91-6.5,6.5s2.91,6.5,6.5,6.5c2.89,0,5.34-1.89,6.18-4.5H3.02Z"/><path class="cls-3" d="M111.55,.91c-.37-.37-.88-.59-1.41-.59H43.08l-8.54-8.54c-.37-.37-.88-.59-1.41-.59H-35.71c-.53,0-1.04,.21-1.41,.59l-12.58,12.58h-37.68c-.86-2.58-3.29-4.44-6.16-4.44-3.59,0-6.5,2.91-6.5,6.5s2.91,6.5,6.5,6.5c2.91,0,5.38-1.92,6.21-4.56H-48.88c.53,0,1.04-.21,1.41-.59l12.58-12.58H32.3L40.84,3.74c.38,.38,.88,.59,1.41,.59H109.3l35.71,35.71c-.45,.89-.72,1.89-.72,2.96,0,3.59,2.91,6.5,6.5,6.5s6.5-2.91,6.5-6.5-2.91-6.5-6.5-6.5c-1.07,0-2.07,.26-2.96,.72L111.55,.91Z"/><path class="cls-3" d="M-121.51,76.07c2.89,0,5.34-1.89,6.18-4.5h15.79c.53,0,1.04-.21,1.41-.59l21.96-21.96H43.94c.84,2.61,3.29,4.5,6.18,4.5,3.59,0,6.5-2.91,6.5-6.5s-2.91-6.5-6.5-6.5c-2.89,0-5.34,1.89-6.18,4.5H-76.99c-.53,0-1.04,.21-1.41,.59l-21.96,21.96h-14.96c-.84-2.61-3.29-4.5-6.18-4.5-3.59,0-6.5,2.91-6.5,6.5s2.91,6.5,6.5,6.5Z"/><path class="cls-3" d="M-111.84,22.14c2.72,0,5.05-1.67,6.02-4.04H-46.14c.53,0,1.04-.21,1.41-.59l11.01-11.01H32.83l7.89,7.89c.37,.38,.88,.59,1.41,.59h61.56l26.66,26.66c-.45,.89-.72,1.89-.72,2.96,0,3.59,2.91,6.5,6.5,6.5s6.5-2.91,6.5-6.5-2.91-6.5-6.5-6.5c-1.07,0-2.07,.26-2.96,.72l-27.24-27.24c-.37-.38-.88-.59-1.41-.59H42.96l-7.89-7.89c-.37-.38-.88-.59-1.41-.59H-34.54c-.53,0-1.04,.21-1.41,.59l-11.01,11.01h-58.56c-.69-2.84-3.25-4.96-6.31-4.96-3.59,0-6.5,2.91-6.5,6.5s2.91,6.5,6.5,6.5Z"/><path class="cls-3" d="M144.13,120.11c-3.59,0-6.5,2.91-6.5,6.5,0,1.14,.29,2.21,.81,3.14l-14.25,14.25H11.42c-.84-2.61-3.29-4.5-6.18-4.5-3.59,0-6.5,2.91-6.5,6.5s2.91,6.5,6.5,6.5c2.89,0,5.34-1.89,6.18-4.5H125.02c.53,0,1.04-.21,1.41-.59l14.93-14.93c.84,.4,1.78,.63,2.77,.63,3.59,0,6.5-2.91,6.5-6.5s-2.91-6.5-6.5-6.5Z"/><path class="cls-3" d="M66.13,66.44c3.59,0,6.5-2.91,6.5-6.5s-2.91-6.5-6.5-6.5c-2.89,0-5.34,1.89-6.18,4.5H-69.88c-.53,0-1.04,.21-1.41,.59l-25.86,25.86h-30.79l-12.72-12.72c.35-.8,.55-1.68,.55-2.61,0-3.59-2.91-6.5-6.5-6.5s-6.5,2.91-6.5,6.5,2.91,6.5,6.5,6.5c1.2,0,2.32-.33,3.29-.9l13.15,13.15c.37,.37,.88,.59,1.41,.59h32.45c.53,0,1.04-.21,1.41-.59l25.86-25.86H59.95c.84,2.61,3.29,4.5,6.18,4.5Z"/><path class="cls-3" d="M66.13,28.09c-2.89,0-5.34,1.89-6.18,4.5H-90.77c-.53,0-1.04,.21-1.41,.59l-9.41,9.41h-14.39c-.84-2.61-3.29-4.5-6.18-4.5-3.59,0-6.5,2.91-6.5,6.5s2.91,6.5,6.5,6.5c2.89,0,5.34-1.89,6.18-4.5h15.22c.53,0,1.04-.21,1.41-.59l9.41-9.41H59.94c.84,2.61,3.29,4.5,6.18,4.5,3.59,0,6.5-2.91,6.5-6.5s-2.91-6.5-6.5-6.5Z"/><path class="cls-3" d="M30.92,84.27c-3.59,0-6.5,2.91-6.5,6.5s2.91,6.5,6.5,6.5c1.07,0,2.07-.26,2.96-.72l20.83,20.83c.37,.38,.88,.59,1.41,.59h41.2c.53,0,1.04-.21,1.41-.59l17.42-17.41c.81,.36,1.7,.57,2.64,.57,3.59,0,6.5-2.91,6.5-6.5s-2.91-6.5-6.5-6.5-6.5,2.91-6.5,6.5c0,1.19,.32,2.3,.88,3.25l-16.68,16.68H56.96l-20.25-20.25c.45-.89,.72-1.89,.72-2.96,0-3.59-2.91-6.5-6.5-6.5Z"/><path class="cls-3" d="M144.13,148c-2.89,0-5.34,1.89-6.18,4.5H25.79c-.53,0-1.04,.21-1.41,.59l-5.95,5.95c-.72-.27-1.49-.43-2.3-.43-3.59,0-6.5,2.91-6.5,6.5s2.91,6.5,6.5,6.5,6.5-2.91,6.5-6.5c0-1.31-.39-2.53-1.06-3.55l5.06-5.06h111.33c.84,2.61,3.29,4.5,6.18,4.5,3.59,0,6.5-2.91,6.5-6.5s-2.91-6.5-6.5-6.5Z"/></g><g class="cls-2"><path class="cls-3" d="M130.33,585.94c.7,0,1.38-.28,1.87-.78l21.88-21.88h39l34.81,34.81c-.71,1.25-1.12,2.69-1.12,4.23,0,4.75,3.85,8.61,8.61,8.61s8.61-3.85,8.61-8.61-3.85-8.61-8.61-8.61c-1.28,0-2.49,.29-3.58,.79l-35.74-35.74c-.5-.5-1.17-.78-1.87-.78h-41.2c-.7,0-1.38,.28-1.87,.78l-21.88,21.88H36.46c-.7,0-1.38,.28-1.87,.78L-3.92,619.93H-38.07l-20.34-20.34c-.5-.5-1.17-.78-1.87-.78h-19.65c-1.42-2.79-4.32-4.71-7.67-4.71-4.75,0-8.61,3.85-8.61,8.61s3.85,8.61,8.61,8.61c4.28,0,7.81-3.12,8.48-7.21h17.73l20.34,20.34c.5,.5,1.17,.78,1.87,.78H-2.82c.7,0,1.38-.28,1.87-.78l38.51-38.51h92.78Z"/><path class="cls-3" d="M-30.2,514.25c.7,0,1.38-.28,1.87-.78l9.24-9.24H227.1l34.62,34.62c-.6,1.18-.95,2.5-.95,3.91,0,4.75,3.85,8.61,8.61,8.61s8.61-3.85,8.61-8.61-3.85-8.61-8.61-8.61c-1.41,0-2.74,.35-3.91,.95l-35.39-35.39c-.5-.5-1.17-.78-1.87-.78H-20.19c-.7,0-1.38,.28-1.87,.78l-9.24,9.24H-96.36c-.91-3.78-4.3-6.59-8.36-6.59-4.75,0-8.61,3.85-8.61,8.61s3.85,8.61,8.61,8.61c3.59,0,6.67-2.2,7.96-5.32H-30.2Z"/><path class="cls-3" d="M133.13,601.39h-28.45c-1.12-3.46-4.36-5.96-8.19-5.96-4.75,0-8.61,3.85-8.61,8.61s3.85,8.61,8.61,8.61c3.83,0,7.07-2.5,8.19-5.96h27.35l32.04,32.04c.5,.5,1.17,.78,1.87,.78h103.29c.7,0,1.38-.28,1.87-.78l24.84-24.84c1.1,.51,2.31,.8,3.6,.8,4.75,0,8.61-3.85,8.61-8.61s-3.85-8.61-8.61-8.61-8.61,3.85-8.61,8.61c0,1.53,.41,2.97,1.11,4.22l-23.91,23.91h-101.1l-32.04-32.04c-.5-.5-1.17-.78-1.87-.78Z"/><path class="cls-3" d="M262.86,470.4c-.5-.5-1.17-.78-1.87-.78h-88.79l-11.31-11.31c-.5-.5-1.17-.78-1.87-.78H67.87c-.7,0-1.38,.28-1.87,.78l-16.66,16.66H-.55c-1.14-3.41-4.36-5.88-8.16-5.88-4.75,0-8.61,3.85-8.61,8.61s3.85,8.61,8.61,8.61c3.86,0,7.12-2.54,8.22-6.04H50.44c.7,0,1.38-.28,1.87-.78l16.66-16.66h88.96l11.31,11.31c.5,.5,1.17,.78,1.87,.78h88.79l47.28,47.28c-.6,1.18-.95,2.5-.95,3.91,0,4.75,3.85,8.61,8.61,8.61s8.61-3.85,8.61-8.61-3.85-8.61-8.61-8.61c-1.41,0-2.74,.35-3.91,.95l-48.06-48.06Z"/><path class="cls-3" d="M51.66,389.93c-.7,0-1.38,.28-1.87,.78l-28.46,28.46c-.5,.5-.78,1.17-.78,1.87v26.12c-3.46,1.12-5.96,4.36-5.96,8.19,0,4.75,3.85,8.61,8.61,8.61s8.61-3.85,8.61-8.61c0-3.83-2.5-7.07-5.96-8.19v-25.03l26.91-26.91h31.37c.7,0,1.38-.28,1.87-.78l14.75-14.75H372.56c1.12,3.46,4.36,5.96,8.19,5.96,4.75,0,8.61-3.85,8.61-8.61s-3.85-8.61-8.61-8.61c-3.83,0-7.07,2.5-8.19,5.96H99.65c-.7,0-1.38,.28-1.87,.78l-14.75,14.75h-31.37Z"/><path class="cls-3" d="M-45.73,569.92c3.83,0,7.07-2.5,8.19-5.96H-16.64c.7,0,1.38-.28,1.87-.78l29.08-29.08H173.35c1.12,3.46,4.36,5.96,8.19,5.96,4.75,0,8.61-3.85,8.61-8.61s-3.85-8.61-8.61-8.61c-3.83,0-7.07,2.5-8.19,5.96H13.21c-.7,0-1.38,.28-1.87,.78l-29.08,29.08h-19.81c-1.12-3.46-4.36-5.96-8.19-5.96-4.75,0-8.61,3.85-8.61,8.61s3.85,8.61,8.61,8.61Z"/><path class="cls-3" d="M-32.93,498.52c3.6,0,6.68-2.21,7.97-5.35H54.06c.7,0,1.38-.28,1.87-.78l14.58-14.58h88.11l10.44,10.44c.5,.5,1.17,.78,1.87,.78h81.52l35.3,35.3c-.6,1.18-.95,2.5-.95,3.91,0,4.75,3.85,8.61,8.61,8.61s8.61-3.85,8.61-8.61-3.85-8.61-8.61-8.61c-1.41,0-2.74,.35-3.91,.95l-36.07-36.07c-.5-.5-1.17-.78-1.87-.78h-81.52l-10.44-10.44c-.5-.5-1.17-.78-1.87-.78H69.42c-.7,0-1.38,.28-1.87,.78l-14.58,14.58H-24.58c-.92-3.77-4.3-6.57-8.35-6.57-4.75,0-8.61,3.85-8.61,8.61s3.85,8.61,8.61,8.61Z"/><path class="cls-3" d="M380.75,391.38c-3.83,0-7.07,2.5-8.19,5.96H164.12c-.7,0-1.38,.28-1.87,.78l-21.42,21.42H71.18c-1.12-3.46-4.36-5.96-8.19-5.96-4.75,0-8.61,3.85-8.61,8.61s3.85,8.61,8.61,8.61c3.83,0,7.07-2.5,8.19-5.96h70.74c.7,0,1.38-.28,1.87-.78l21.42-21.42h207.35c1.12,3.46,4.36,5.96,8.19,5.96,4.75,0,8.61-3.85,8.61-8.61s-3.85-8.61-8.61-8.61Z"/><path class="cls-3" d="M284.83,446.89c-3.83,0-7.07,2.5-8.19,5.96h-99.38l-10.62-10.62c-.5-.5-1.17-.78-1.87-.78h-60.08c-1.11-3.47-4.36-5.98-8.2-5.98-4.75,0-8.61,3.85-8.61,8.61s3.85,8.61,8.61,8.61c3.82,0,7.06-2.49,8.18-5.94h58.99l10.62,10.62c.5,.5,1.17,.78,1.87,.78h100.48c1.12,3.46,4.36,5.96,8.19,5.96,4.75,0,8.61-3.85,8.61-8.61s-3.85-8.61-8.61-8.61Z"/><path class="cls-3" d="M202.73,557.18c4.75,0,8.61-3.85,8.61-8.61s-3.85-8.61-8.61-8.61c-3.83,0-7.07,2.5-8.19,5.96H22.63c-.7,0-1.38,.28-1.87,.78l-34.24,34.24H-54.26l-16.85-16.85c.46-1.06,.73-2.23,.73-3.46,0-4.75-3.85-8.61-8.61-8.61s-8.61,3.85-8.61,8.61,3.85,8.61,8.61,8.61c1.59,0,3.07-.44,4.35-1.19l17.41,17.41c.5,.5,1.17,.78,1.87,.78H-12.39c.7,0,1.38-.28,1.87-.78l34.24-34.24H194.54c1.12,3.46,4.36,5.96,8.19,5.96Z"/><path class="cls-3" d="M202.73,506.39c-3.83,0-7.07,2.5-8.19,5.96H-5.03c-.7,0-1.38,.28-1.87,.78l-12.47,12.47h-19.06c-1.12-3.46-4.36-5.96-8.19-5.96-4.75,0-8.61,3.85-8.61,8.61s3.85,8.61,8.61,8.61c3.83,0,7.07-2.5,8.19-5.96H-18.27c.7,0,1.38-.28,1.87-.78l12.47-12.47H194.54c1.12,3.46,4.36,5.96,8.19,5.96,4.75,0,8.61-3.85,8.61-8.61s-3.85-8.61-8.61-8.61Z"/><path class="cls-3" d="M156.11,580.78c-4.75,0-8.61,3.85-8.61,8.61s3.85,8.61,8.61,8.61c1.41,0,2.74-.35,3.91-.95l27.59,27.59c.5,.5,1.17,.78,1.87,.78h54.55c.7,0,1.38-.28,1.87-.78l23.06-23.06c1.07,.48,2.25,.75,3.5,.75,4.75,0,8.61-3.85,8.61-8.61s-3.85-8.61-8.61-8.61-8.61,3.85-8.61,8.61c0,1.57,.43,3.04,1.16,4.31l-22.09,22.09h-52.36l-26.81-26.81c.6-1.18,.95-2.5,.95-3.91,0-4.75-3.85-8.61-8.61-8.61Z"/></g><g class="cls-2"><path class="cls-3" d="M1141.73,337.5c-.84,0-1.65-.33-2.24-.93l-26.23-26.23h-46.75l-41.72,41.72c.85,1.5,1.34,3.23,1.34,5.08,0,5.7-4.62,10.32-10.32,10.32s-10.32-4.62-10.32-10.32,4.62-10.32,10.32-10.32c1.53,0,2.99,.34,4.29,.94l42.84-42.84c.6-.6,1.4-.93,2.24-.93h49.38c.84,0,1.65,.33,2.24,.93l26.23,26.23h111.2c.84,0,1.65,.33,2.24,.93l46.16,46.16h40.93l24.38-24.38c.6-.6,1.4-.93,2.24-.93h23.55c1.71-3.35,5.18-5.64,9.19-5.64,5.7,0,10.32,4.62,10.32,10.32s-4.62,10.32-10.32,10.32c-5.13,0-9.37-3.74-10.17-8.64h-21.25l-24.38,24.38c-.6,.6-1.4,.93-2.24,.93h-43.56c-.84,0-1.65-.33-2.24-.93l-46.16-46.16h-111.2Z"/><path class="cls-3" d="M1334.14,251.57c-.84,0-1.65-.33-2.24-.93l-11.07-11.07h-295.08l-41.49,41.49c.72,1.41,1.14,3,1.14,4.69,0,5.7-4.62,10.32-10.32,10.32s-10.32-4.62-10.32-10.32,4.62-10.32,10.32-10.32c1.69,0,3.28,.41,4.69,1.14l42.42-42.42c.6-.6,1.4-.93,2.24-.93h297.71c.84,0,1.65,.33,2.24,.93l11.07,11.07h77.99c1.09-4.53,5.16-7.9,10.02-7.9,5.7,0,10.32,4.62,10.32,10.32s-4.62,10.32-10.32,10.32c-4.3,0-7.99-2.64-9.54-6.38h-79.78Z"/><path class="cls-3" d="M1138.38,356.01h34.1c1.34-4.14,5.22-7.14,9.81-7.14,5.7,0,10.32,4.62,10.32,10.32s-4.62,10.32-10.32,10.32c-4.59,0-8.47-3-9.81-7.14h-32.78l-38.4,38.4c-.6,.6-1.4,.93-2.24,.93h-123.8c-.84,0-1.65-.33-2.24-.93l-29.77-29.77c-1.31,.61-2.77,.96-4.32,.96-5.7,0-10.32-4.62-10.32-10.32s4.62-10.32,10.32-10.32,10.32,4.62,10.32,10.32c0,1.84-.49,3.56-1.33,5.06l28.66,28.66h121.17l38.4-38.4c.59-.6,1.4-.93,2.24-.93Z"/><path class="cls-3" d="M1155.12,385.03l-8.95,8.95c.82,1.48,1.29,3.18,1.29,4.98,0,5.7-4.62,10.32-10.32,10.32s-10.32-4.62-10.32-10.32,4.62-10.32,10.32-10.32c1.57,0,3.06,.36,4.39,.99l10.03-10.03c.6-.6,1.4-.93,2.24-.93h103.32c1.34-4.14,5.22-7.14,9.81-7.14,5.7,0,10.32,4.62,10.32,10.32s-4.62,10.32-10.32,10.32c-4.59,0-8.47-3-9.81-7.14h-102Z"/><path class="cls-3" d="M982.88,199.01c.6-.6,1.4-.93,2.24-.93h106.42l13.55-13.55c.6-.6,1.4-.93,2.24-.93h109.25c.84,0,1.65,.33,2.24,.93l19.97,19.97h59.8c1.37-4.09,5.23-7.05,9.78-7.05,5.7,0,10.32,4.62,10.32,10.32s-4.62,10.32-10.32,10.32c-4.63,0-8.54-3.04-9.85-7.24h-61.05c-.84,0-1.65-.33-2.24-.93l-19.97-19.97h-106.62l-13.55,13.55c-.6,.6-1.4,.93-2.24,.93h-106.42l-56.67,56.67c.72,1.41,1.14,3,1.14,4.69,0,5.7-4.62,10.32-10.32,10.32s-10.32-4.62-10.32-10.32,4.62-10.32,10.32-10.32c1.69,0,3.28,.41,4.69,1.14l57.6-57.6Z"/><path class="cls-3" d="M1236.03,102.56c.84,0,1.65,.33,2.24,.93l34.11,34.12c.6,.6,.93,1.4,.93,2.24v31.31c4.14,1.34,7.14,5.22,7.14,9.81,0,5.7-4.62,10.32-10.32,10.32s-10.32-4.62-10.32-10.32c0-4.59,3-8.47,7.14-9.81v-30l-32.26-32.26h-37.6c-.84,0-1.65-.33-2.24-.93l-17.67-17.67h-325.8c-1.34,4.14-5.22,7.14-9.81,7.14-5.7,0-10.32-4.62-10.32-10.32s4.62-10.32,10.32-10.32c4.59,0,8.47,3,9.81,7.14h327.11c.84,0,1.65,.33,2.24,.93l17.67,17.67h37.6Z"/><path class="cls-3" d="M1352.76,318.29c-4.59,0-8.47-3-9.81-7.14h-25.05c-.84,0-1.65-.33-2.24-.93l-34.85-34.85h-190.62c-1.34,4.14-5.22,7.14-9.81,7.14-5.7,0-10.32-4.62-10.32-10.32s4.62-10.32,10.32-10.32c4.59,0,8.47,3,9.81,7.14h191.94c.84,0,1.65,.33,2.24,.93l34.85,34.85h23.74c1.34-4.14,5.22-7.14,9.81-7.14,5.7,0,10.32,4.62,10.32,10.32s-4.62,10.32-10.32,10.32Z"/><path class="cls-3" d="M1337.42,232.71c-4.32,0-8.01-2.65-9.55-6.41h-94.72c-.84,0-1.65-.33-2.24-.93l-17.48-17.48h-105.61l-12.52,12.52c-.59,.6-1.4,.93-2.24,.93h-97.71l-42.31,42.31c.72,1.41,1.14,3,1.14,4.69,0,5.7-4.62,10.32-10.32,10.32s-10.32-4.62-10.32-10.32,4.62-10.32,10.32-10.32c1.69,0,3.28,.41,4.69,1.14l43.24-43.24c.6-.6,1.4-.93,2.24-.93h97.71l12.52-12.52c.6-.6,1.4-.93,2.24-.93h108.24c.84,0,1.65,.33,2.24,.93l17.48,17.48h92.94c1.1-4.51,5.16-7.87,10.01-7.87,5.7,0,10.32,4.62,10.32,10.32s-4.62,10.32-10.32,10.32Z"/><path class="cls-3" d="M841.59,104.3c4.59,0,8.47,3,9.81,7.14h249.84c.84,0,1.65,.33,2.24,.93l25.67,25.67h83.47c1.34-4.14,5.22-7.14,9.81-7.14,5.7,0,10.32,4.62,10.32,10.32s-4.62,10.32-10.32,10.32c-4.59,0-8.47-3-9.81-7.14h-84.79c-.84,0-1.65-.33-2.24-.93l-25.67-25.67h-248.53c-1.34,4.14-5.22,7.14-9.81,7.14-5.7,0-10.32-4.62-10.32-10.32s4.62-10.32,10.32-10.32Z"/><path class="cls-3" d="M956.56,170.84c4.59,0,8.47,3,9.81,7.14h119.12l12.73-12.73c.6-.6,1.4-.93,2.24-.93h72.01c1.33-4.16,5.22-7.17,9.82-7.17,5.7,0,10.32,4.62,10.32,10.32s-4.62,10.32-10.32,10.32c-4.58,0-8.46-2.99-9.8-7.12h-70.71l-12.73,12.73c-.6,.6-1.4,.93-2.24,.93h-120.43c-1.34,4.14-5.22,7.14-9.81,7.14-5.7,0-10.32-4.62-10.32-10.32s4.62-10.32,10.32-10.32Z"/><path class="cls-3" d="M931.16,388.2c5.7,0,10.32,4.62,10.32,10.32,0,1.81-.47,3.51-1.29,4.98l22.62,22.62h178.98c1.34-4.14,5.22-7.14,9.81-7.14,5.7,0,10.32,4.62,10.32,10.32s-4.62,10.32-10.32,10.32c-4.59,0-8.47-3-9.81-7.14h-180.3c-.84,0-1.65-.33-2.24-.93l-23.69-23.69c-1.33,.63-2.82,.99-4.39,.99-5.7,0-10.32-4.62-10.32-10.32s4.62-10.32,10.32-10.32Z"/><path class="cls-3" d="M1054.96,303.02c-5.7,0-10.32-4.62-10.32-10.32s4.62-10.32,10.32-10.32c4.59,0,8.47,3,9.81,7.14h206.04c.84,0,1.65,.33,2.24,.93l41.04,41.04h48.87l20.2-20.2c-.56-1.27-.87-2.67-.87-4.14,0-5.7,4.62-10.32,10.32-10.32s10.32,4.62,10.32,10.32-4.62,10.32-10.32,10.32c-1.91,0-3.69-.53-5.22-1.43l-20.87,20.87c-.59,.6-1.4,.93-2.24,.93h-51.5c-.84,0-1.65-.33-2.24-.93l-41.04-41.04h-204.73c-1.34,4.14-5.22,7.14-9.81,7.14Z"/><path class="cls-3" d="M1054.96,242.15c4.59,0,8.47,3,9.81,7.14h239.2c.84,0,1.65,.33,2.24,.93l14.94,14.94h22.84c1.34-4.14,5.22-7.14,9.81-7.14,5.7,0,10.32,4.62,10.32,10.32s-4.62,10.32-10.32,10.32c-4.59,0-8.47-3-9.81-7.14h-24.16c-.84,0-1.65-.33-2.24-.93l-14.94-14.94h-237.88c-1.34,4.14-5.22,7.14-9.81,7.14-5.7,0-10.32-4.62-10.32-10.32s4.62-10.32,10.32-10.32Z"/><path class="cls-3" d="M1110.84,331.31c5.7,0,10.32,4.62,10.32,10.32s-4.62,10.32-10.32,10.32c-1.69,0-3.28-.41-4.69-1.14l-33.07,33.07c-.6,.6-1.4,.93-2.24,.93h-65.38c-.84,0-1.65-.33-2.24-.93l-27.64-27.64c-1.28,.57-2.7,.9-4.2,.9-5.7,0-10.32-4.62-10.32-10.32s4.62-10.32,10.32-10.32,10.32,4.62,10.32,10.32c0,1.88-.51,3.65-1.4,5.17l26.47,26.47h62.75l32.14-32.14c-.72-1.41-1.14-3-1.14-4.69,0-5.7,4.62-10.32,10.32-10.32Z"/><path class="cls-3" d="M931.16,432.46c4.59,0,8.47,3,9.81,7.14h178c.84,0,1.65,.33,2.24,.93l9.45,9.45c1.14-.43,2.36-.68,3.65-.68,5.7,0,10.32,4.62,10.32,10.32s-4.62,10.32-10.32,10.32-10.32-4.62-10.32-10.32c0-2.08,.62-4.02,1.69-5.64l-8.03-8.03h-176.69c-1.34,4.14-5.22,7.14-9.81,7.14-5.7,0-10.32-4.62-10.32-10.32s4.62-10.32,10.32-10.32Z"/></g></g></g></svg>