<?xml version="1.0" encoding="UTF-8"?><svg id="Capa_1" xmlns="http://www.w3.org/2000/svg" viewBox="0 0 299 300"><defs><style>.cls-1{fill:#100eb4;}.cls-2{fill:#fff;}.cls-3{fill:none;}</style></defs><path class="cls-3" d="M288.2,168.06c4.01,0,7.27-3.26,7.27-7.27s-3.26-7.27-7.27-7.27-7.27,3.26-7.27,7.27,3.26,7.27,7.27,7.27Z"/><path class="cls-3" d="M275,188.44c2.15,0,3.9-1.75,3.9-3.9s-1.75-3.9-3.9-3.9-3.9,1.75-3.9,3.9,1.75,3.9,3.9,3.9Z"/><path class="cls-3" d="M214.8,11.31c0-4.01-3.26-7.27-7.27-7.27s-7.27,3.26-7.27,7.27,3.26,7.27,7.27,7.27,7.27-3.26,7.27-7.27Z"/><path class="cls-3" d="M25.74,129.57c-2.34,0-4.24,1.9-4.24,4.24s1.9,4.24,4.24,4.24,4.24-1.9,4.24-4.24-1.9-4.24-4.24-4.24Z"/><path class="cls-3" d="M186.77,24.51c0-2.15-1.75-3.9-3.9-3.9s-3.9,1.75-3.9,3.9,1.75,3.9,3.9,3.9,3.9-1.75,3.9-3.9Z"/><path class="cls-3" d="M288.2,201.94c-4.01,0-7.27,3.26-7.27,7.27s3.26,7.27,7.27,7.27,7.27-3.26,7.27-7.27-3.26-7.27-7.27-7.27Z"/><path class="cls-3" d="M10.8,106.17c-4.01,0-7.27,3.26-7.27,7.27s3.26,7.27,7.27,7.27,7.27-3.26,7.27-7.27-3.26-7.27-7.27-7.27Z"/><circle class="cls-3" cx="205.21" cy="288.69" r="7.27" transform="translate(-84.11 493.03) rotate(-89.83)"/><path class="cls-3" d="M176.64,275.49c0,2.15,1.75,3.9,3.9,3.9s3.9-1.75,3.9-3.9-1.75-3.9-3.9-3.9-3.9,1.75-3.9,3.9Z"/><polygon class="cls-2" points="89.72 198.76 116.76 198.76 120.22 140.88 120.67 138.32 121.12 138.32 121.72 140.88 139.91 189.74 157.94 189.74 175.97 140.88 176.72 138.32 177.02 138.32 177.48 140.88 180.48 198.76 207.53 198.76 200.02 103.14 169.96 103.14 149.22 156.52 148.92 158.32 148.47 156.52 128.79 103.14 98.73 103.14 97.58 115.38 68.83 115.38 68.83 115.46 42.09 115.46 42.09 123.22 96.84 123.22 95.65 135.85 42.09 135.85 42.09 141.13 95.15 141.13 89.72 198.76"/><path class="cls-1" d="M288.2,197.91c-5.54,0-10.16,4.02-11.11,9.29h-21.94v-21.05h12.92c.73,3.15,3.55,5.52,6.92,5.52,3.93,0,7.13-3.2,7.13-7.13s-3.2-7.13-7.13-7.13c-3.37,0-6.19,2.36-6.92,5.52h-12.92v-20.13h21.94c.95,5.27,5.57,9.29,11.11,9.29,6.23,0,11.3-5.07,11.3-11.31s-5.07-11.31-11.3-11.31c-5.54,0-10.16,4.02-11.11,9.29h-21.94V76.62c0-17.81-14.43-32.26-32.24-32.26h-13.37V22.42c5.27-.95,9.29-5.57,9.29-11.12,0-6.23-5.07-11.31-11.3-11.31s-11.3,5.07-11.3,11.31c0,5.54,4.01,10.16,9.29,11.12v21.95h-21.04v-12.92c3.15-.74,5.51-3.55,5.51-6.93,0-3.93-3.2-7.13-7.13-7.13s-7.13,3.2-7.13,7.13c0,3.37,2.36,6.19,5.51,6.93v12.92H74.33c-17.81,0-32.24,14.44-32.24,32.26v34.81H21.91c-.95-5.27-5.57-9.29-11.11-9.29-6.23,0-11.3,5.07-11.3,11.31s5.07,11.31,11.3,11.31c5.54,0,10.16-4.02,11.11-9.29h46.92v-.08h28.75l1.15-12.24h30.05l19.69,53.37,.45,1.8,.3-1.8,20.74-53.37h30.05l7.51,95.62h-27.05l-3.01-57.88-.45-2.56h-.3l-.75,2.56-18.03,48.86h-18.03l-18.18-48.86-.6-2.56h-.45l-.45,2.56-3.46,57.88h-27.05l5.43-57.64H42.09v84.16c0,17.81,14.43,32.26,32.24,32.26h104.6v11.02c-3.15,.74-5.51,3.55-5.51,6.93,0,3.93,3.2,7.13,7.13,7.13s7.13-3.2,7.13-7.13c0-3.37-2.36-6.19-5.51-6.93v-11.02h21.04v20.04c-5.27,.95-9.29,5.57-9.29,11.12,0,6.23,5.07,11.31,11.3,11.31s11.3-5.07,11.3-11.31c0-5.54-4.01-10.16-9.29-11.12v-20.04h15.69c17.81,0,32.24-14.44,32.24-32.26v-14.05h21.94c.95,5.27,5.57,9.29,11.11,9.29,6.23,0,11.3-5.07,11.3-11.31s-5.07-11.31-11.3-11.31Zm-13.2-17.27c2.15,0,3.9,1.75,3.9,3.9s-1.75,3.9-3.9,3.9-3.9-1.75-3.9-3.9,1.75-3.9,3.9-3.9Zm13.2-27.13c4.01,0,7.27,3.26,7.27,7.27s-3.26,7.27-7.27,7.27-7.27-3.26-7.27-7.27,3.26-7.27,7.27-7.27ZM200.26,11.31c0-4.01,3.26-7.27,7.27-7.27s7.27,3.26,7.27,7.27-3.26,7.27-7.27,7.27-7.27-3.26-7.27-7.27Zm-21.29,13.21c0-2.15,1.75-3.9,3.9-3.9s3.9,1.75,3.9,3.9-1.75,3.9-3.9,3.9-3.9-1.75-3.9-3.9ZM10.8,120.72c-4.01,0-7.27-3.26-7.27-7.27s3.26-7.27,7.27-7.27,7.27,3.26,7.27,7.27-3.26,7.27-7.27,7.27Zm173.65,154.77c0,2.15-1.75,3.9-3.9,3.9s-3.9-1.75-3.9-3.9,1.75-3.9,3.9-3.9,3.9,1.75,3.9,3.9Zm28.03,13.21c0,4.01-3.26,7.27-7.27,7.27s-7.27-3.26-7.27-7.27,3.26-7.27,7.27-7.27,7.27,3.26,7.27,7.27Zm75.72-72.21c-4.01,0-7.27-3.26-7.27-7.27s3.26-7.27,7.27-7.27,7.27,3.26,7.27,7.27-3.26,7.27-7.27,7.27Z"/><path class="cls-1" d="M96.84,123.22H42.09v8.58h-9.62c-.87-2.91-3.54-5.05-6.73-5.05-3.89,0-7.06,3.17-7.06,7.06s3.17,7.06,7.06,7.06c3.19,0,5.86-2.14,6.73-5.05h9.62v.02h53.56l1.19-12.63Zm-71.1,14.84c-2.34,0-4.24-1.9-4.24-4.24s1.9-4.24,4.24-4.24,4.24,1.9,4.24,4.24-1.9,4.24-4.24,4.24Z"/></svg>