<?xml version="1.0" encoding="UTF-8"?><svg id="Capa_1" xmlns="http://www.w3.org/2000/svg" xmlns:xlink="http://www.w3.org/1999/xlink" viewBox="0 0 619 299"><defs><style>.cls-1{fill:url(#Degradado_sin_nombre_13);}.cls-2{opacity:.6;}.cls-3{clip-path:url(#clippath-1);}.cls-4{fill:#0677ff;}.cls-5{clip-path:url(#clippath);}.cls-6{fill:none;}</style><clipPath id="clippath"><rect class="cls-6" x="-1437.25" y="-169.83" width="1319.11" height="638.66"/></clipPath><clipPath id="clippath-1"><rect class="cls-6" x="-20.86" y="-10.45" width="660.72" height="319.89"/></clipPath><linearGradient id="Degradado_sin_nombre_13" x1="-21" y1="306.48" x2="638.87" y2="-6.76" gradientTransform="matrix(1, 0, 0, 1, 0, 0)" gradientUnits="userSpaceOnUse"><stop offset="0" stop-color="#0000bf"/><stop offset=".29" stop-color="#0101c2"/><stop offset=".58" stop-color="#0606ce"/><stop offset=".86" stop-color="#0e0ee2"/><stop offset="1" stop-color="#1414ef"/></linearGradient></defs><g class="cls-5"><g class="cls-2"><path class="cls-4" d="M-255.47,187.5c-.84,0-1.65-.33-2.24-.93l-26.23-26.23h-46.75l-41.72,41.72c.85,1.5,1.34,3.23,1.34,5.08,0,5.7-4.62,10.32-10.32,10.32s-10.32-4.62-10.32-10.32,4.62-10.32,10.32-10.32c1.53,0,2.99,.34,4.29,.94l42.84-42.84c.6-.6,1.4-.93,2.24-.93h49.38c.84,0,1.65,.33,2.24,.93l26.23,26.23h111.2c.84,0,1.65,.33,2.24,.93l46.16,46.16H-53.62l24.38-24.38c.6-.6,1.4-.93,2.24-.93H-3.46c1.71-3.35,5.18-5.64,9.19-5.64,5.7,0,10.32,4.62,10.32,10.32s-4.62,10.32-10.32,10.32c-5.13,0-9.37-3.74-10.17-8.64H-25.69l-24.38,24.38c-.6,.6-1.4,.93-2.24,.93h-43.56c-.84,0-1.65-.33-2.24-.93l-46.16-46.16h-111.2Z"/><path class="cls-4" d="M-63.06,101.57c-.84,0-1.65-.33-2.24-.93l-11.07-11.07H-371.45l-41.49,41.49c.72,1.41,1.14,3,1.14,4.69,0,5.7-4.62,10.32-10.32,10.32s-10.32-4.62-10.32-10.32,4.62-10.32,10.32-10.32c1.69,0,3.28,.41,4.69,1.14l42.42-42.42c.6-.6,1.4-.93,2.24-.93H-75.06c.84,0,1.65,.33,2.24,.93l11.07,11.07H16.24c1.09-4.53,5.16-7.9,10.02-7.9,5.7,0,10.32,4.62,10.32,10.32s-4.62,10.32-10.32,10.32c-4.3,0-7.99-2.64-9.54-6.38H-63.06Z"/><path class="cls-4" d="M-342.24,153.02c-5.7,0-10.32-4.62-10.32-10.32s4.62-10.32,10.32-10.32c4.59,0,8.47,3,9.81,7.14H-126.38c.84,0,1.65,.33,2.24,.93l41.04,41.04H-34.22l20.2-20.2c-.56-1.27-.87-2.67-.87-4.14,0-5.7,4.62-10.32,10.32-10.32s10.32,4.62,10.32,10.32-4.62,10.32-10.32,10.32c-1.91,0-3.69-.53-5.22-1.43l-20.87,20.87c-.59,.6-1.4,.93-2.24,.93h-51.5c-.84,0-1.65-.33-2.24-.93l-41.04-41.04h-204.73c-1.34,4.14-5.22,7.14-9.81,7.14Z"/></g></g><g class="cls-3"><g><rect class="cls-1" x="-20.87" y="-10.45" width="661.11" height="319.89"/><g class="cls-2"><path class="cls-4" d="M4.94,43.65c.27,0,.52-.11,.71-.29l8.28-8.28h14.75l13.17,13.17c-.27,.47-.42,1.02-.42,1.6,0,1.8,1.46,3.26,3.26,3.26s3.26-1.46,3.26-3.26-1.46-3.26-3.26-3.26c-.48,0-.94,.11-1.36,.3l-13.52-13.52c-.19-.19-.44-.29-.71-.29H13.51c-.27,0-.52,.11-.71,.29l-8.28,8.28H-30.57c-.27,0-.52,.11-.71,.29l-14.57,14.57h-12.92l-7.69-7.69c-.19-.19-.44-.29-.71-.29h-7.43c-.54-1.06-1.63-1.78-2.9-1.78-1.8,0-3.26,1.46-3.26,3.26s1.46,3.26,3.26,3.26c1.62,0,2.96-1.18,3.21-2.73h6.71l7.69,7.69c.19,.19,.44,.29,.71,.29h13.75c.27,0,.52-.11,.71-.29l14.57-14.57H4.94Z"/><path class="cls-4" d="M-55.78,16.53c.27,0,.52-.11,.71-.29l3.49-3.49H41.55l13.09,13.09c-.23,.44-.36,.95-.36,1.48,0,1.8,1.46,3.26,3.26,3.26s3.26-1.46,3.26-3.26-1.46-3.26-3.26-3.26c-.53,0-1.04,.13-1.48,.36l-13.39-13.39c-.19-.19-.44-.29-.71-.29H-51.99c-.27,0-.52,.11-.71,.29l-3.49,3.49h-24.61c-.34-1.43-1.63-2.49-3.16-2.49-1.8,0-3.26,1.46-3.26,3.26s1.46,3.26,3.26,3.26c1.36,0,2.52-.83,3.01-2.01h25.18Z"/><path class="cls-4" d="M6,49.49H-4.76c-.42-1.31-1.65-2.25-3.1-2.25-1.8,0-3.26,1.46-3.26,3.26s1.46,3.26,3.26,3.26c1.45,0,2.67-.95,3.1-2.25H5.58l12.12,12.12c.19,.19,.44,.29,.71,.29H57.48c.27,0,.52-.11,.71-.29l9.4-9.4c.41,.19,.88,.3,1.36,.3,1.8,0,3.26-1.46,3.26-3.26s-1.46-3.26-3.26-3.26-3.26,1.46-3.26,3.26c0,.58,.15,1.12,.42,1.6l-9.04,9.04H18.83l-12.12-12.12c-.19-.19-.44-.29-.71-.29Z"/><path class="cls-4" d="M.71,58.65l2.82,2.82c-.26,.47-.41,1-.41,1.57,0,1.8,1.46,3.26,3.26,3.26s3.26-1.46,3.26-3.26-1.46-3.26-3.26-3.26c-.5,0-.97,.11-1.39,.31l-3.16-3.16c-.19-.19-.44-.29-.71-.29H-31.48c-.42-1.31-1.65-2.25-3.1-2.25-1.8,0-3.26,1.46-3.26,3.26s1.46,3.26,3.26,3.26c1.45,0,2.67-.95,3.1-2.25H.71Z"/><path class="cls-4" d="M55.07-.06c-.19-.19-.44-.29-.71-.29H20.78l-4.28-4.28c-.19-.19-.44-.29-.71-.29H-18.68c-.27,0-.52,.11-.71,.29L-25.69,1.67h-18.87c-.43-1.29-1.65-2.22-3.09-2.22-1.8,0-3.26,1.46-3.26,3.26s1.46,3.26,3.26,3.26c1.46,0,2.69-.96,3.11-2.28H-25.28c.27,0,.52-.11,.71-.29l6.3-6.3H15.38L19.66,1.36c.19,.19,.44,.29,.71,.29H53.95l17.88,17.88c-.23,.44-.36,.95-.36,1.48,0,1.8,1.46,3.26,3.26,3.26s3.26-1.46,3.26-3.26-1.46-3.26-3.26-3.26c-.53,0-1.04,.13-1.48,.36L55.07-.06Z"/><path class="cls-4" d="M-61.66,37.58c1.45,0,2.67-.95,3.1-2.25h7.91c.27,0,.52-.11,.71-.29l11-11H21.21c.42,1.31,1.65,2.25,3.1,2.25,1.8,0,3.26-1.46,3.26-3.26s-1.46-3.26-3.26-3.26c-1.45,0-2.67,.95-3.1,2.25H-39.36c-.27,0-.52,.11-.71,.29l-11,11h-7.49c-.42-1.31-1.65-2.25-3.1-2.25-1.8,0-3.26,1.46-3.26,3.26s1.46,3.26,3.26,3.26Z"/><path class="cls-4" d="M-56.82,10.58c1.36,0,2.53-.84,3.01-2.02H-23.91c.27,0,.52-.11,.71-.29l5.52-5.52H15.64l3.95,3.95c.19,.19,.44,.29,.71,.29h30.84l13.35,13.35c-.23,.44-.36,.95-.36,1.48,0,1.8,1.46,3.26,3.26,3.26s3.26-1.46,3.26-3.26-1.46-3.26-3.26-3.26c-.53,0-1.04,.13-1.48,.36l-13.65-13.65c-.19-.19-.44-.29-.71-.29H20.72l-3.95-3.95c-.19-.19-.44-.29-.71-.29H-18.1c-.27,0-.52,.11-.71,.29l-5.52,5.52h-29.33c-.35-1.42-1.63-2.48-3.16-2.48-1.8,0-3.26,1.46-3.26,3.26s1.46,3.26,3.26,3.26Z"/><path class="cls-4" d="M71.4,59.65c-1.8,0-3.26,1.46-3.26,3.26,0,.57,.15,1.11,.41,1.57l-7.14,7.14H4.92c-.42-1.31-1.65-2.25-3.1-2.25-1.8,0-3.26,1.46-3.26,3.26s1.46,3.26,3.26,3.26c1.45,0,2.67-.95,3.1-2.25H61.82c.27,0,.52-.11,.71-.29l7.48-7.48c.42,.2,.89,.31,1.39,.31,1.8,0,3.26-1.46,3.26-3.26s-1.46-3.26-3.26-3.26Z"/><path class="cls-4" d="M32.32,32.77c1.8,0,3.26-1.46,3.26-3.26s-1.46-3.26-3.26-3.26c-1.45,0-2.67,.95-3.1,2.25H-35.8c-.27,0-.52,.11-.71,.29l-12.95,12.95h-15.42l-6.37-6.37c.18-.4,.27-.84,.27-1.31,0-1.8-1.46-3.26-3.26-3.26s-3.26,1.46-3.26,3.26,1.46,3.26,3.26,3.26c.6,0,1.16-.17,1.65-.45l6.59,6.59c.19,.19,.44,.29,.71,.29h16.25c.27,0,.52-.11,.71-.29l12.95-12.95H29.23c.42,1.31,1.65,2.25,3.1,2.25Z"/><path class="cls-4" d="M32.32,13.55c-1.45,0-2.67,.95-3.1,2.25H-46.26c-.27,0-.52,.11-.71,.29l-4.72,4.72h-7.21c-.42-1.31-1.65-2.25-3.1-2.25-1.8,0-3.26,1.46-3.26,3.26s1.46,3.26,3.26,3.26c1.45,0,2.67-.95,3.1-2.25h7.62c.27,0,.52-.11,.71-.29l4.72-4.72H29.23c.42,1.31,1.65,2.25,3.1,2.25,1.8,0,3.26-1.46,3.26-3.26s-1.46-3.26-3.26-3.26Z"/><path class="cls-4" d="M14.69,41.69c-1.8,0-3.26,1.46-3.26,3.26s1.46,3.26,3.26,3.26c.53,0,1.04-.13,1.48-.36l10.44,10.44c.19,.19,.44,.29,.71,.29h20.63c.27,0,.52-.11,.71-.29l8.72-8.72c.4,.18,.85,.28,1.32,.28,1.8,0,3.26-1.46,3.26-3.26s-1.46-3.26-3.26-3.26-3.26,1.46-3.26,3.26c0,.59,.16,1.15,.44,1.63l-8.36,8.36H27.73l-10.14-10.14c.23-.44,.36-.95,.36-1.48,0-1.8-1.46-3.26-3.26-3.26Z"/><path class="cls-4" d="M71.4,73.62c-1.45,0-2.67,.95-3.1,2.25H12.12c-.27,0-.52,.11-.71,.29l-2.98,2.98c-.36-.14-.75-.21-1.15-.21-1.8,0-3.26,1.46-3.26,3.26s1.46,3.26,3.26,3.26,3.26-1.46,3.26-3.26c0-.66-.2-1.27-.53-1.78l2.53-2.53h55.76c.42,1.31,1.65,2.25,3.1,2.25,1.8,0,3.26-1.46,3.26-3.26s-1.46-3.26-3.26-3.26Z"/></g><g class="cls-2"><path class="cls-4" d="M64.48,292.97c.35,0,.69-.14,.94-.39l10.96-10.96h19.54l17.43,17.43c-.36,.63-.56,1.35-.56,2.12,0,2.38,1.93,4.31,4.31,4.31s4.31-1.93,4.31-4.31-1.93-4.31-4.31-4.31c-.64,0-1.25,.14-1.79,.39l-17.9-17.9c-.25-.25-.59-.39-.94-.39h-20.64c-.35,0-.69,.14-.94,.39l-10.96,10.96H17.46c-.35,0-.69,.14-.94,.39l-19.29,19.29H-19.87l-10.19-10.19c-.25-.25-.59-.39-.94-.39h-9.84c-.71-1.4-2.16-2.36-3.84-2.36-2.38,0-4.31,1.93-4.31,4.31s1.93,4.31,4.31,4.31c2.14,0,3.91-1.56,4.25-3.61h8.88l10.19,10.19c.25,.25,.59,.39,.94,.39H-2.21c.35,0,.69-.14,.94-.39l19.29-19.29h46.47Z"/><path class="cls-4" d="M-15.93,257.07c.35,0,.69-.14,.94-.39l4.63-4.63H112.95l17.34,17.34c-.3,.59-.47,1.25-.47,1.96,0,2.38,1.93,4.31,4.31,4.31s4.31-1.93,4.31-4.31-1.93-4.31-4.31-4.31c-.71,0-1.37,.17-1.96,.47l-17.73-17.73c-.25-.25-.59-.39-.94-.39H-10.91c-.35,0-.69,.14-.94,.39l-4.63,4.63H-49.06c-.45-1.89-2.15-3.3-4.19-3.3-2.38,0-4.31,1.93-4.31,4.31s1.93,4.31,4.31,4.31c1.8,0,3.34-1.1,3.98-2.67H-15.93Z"/><path class="cls-4" d="M65.88,300.71h-14.25c-.56-1.73-2.18-2.98-4.1-2.98-2.38,0-4.31,1.93-4.31,4.31s1.93,4.31,4.31,4.31c1.92,0,3.54-1.25,4.1-2.98h13.7l16.05,16.05c.25,.25,.59,.39,.94,.39h51.74c.35,0,.69-.14,.94-.39l12.44-12.44c.55,.25,1.16,.4,1.8,.4,2.38,0,4.31-1.93,4.31-4.31s-1.93-4.31-4.31-4.31-4.31,1.93-4.31,4.31c0,.77,.2,1.49,.56,2.11l-11.98,11.98h-50.64l-16.05-16.05c-.25-.25-.59-.39-.94-.39Z"/><path class="cls-4" d="M130.87,235.1c-.25-.25-.59-.39-.94-.39h-44.47l-5.66-5.66c-.25-.25-.59-.39-.94-.39H33.2c-.35,0-.69,.14-.94,.39l-8.35,8.34H-1.07c-.57-1.71-2.18-2.94-4.09-2.94-2.38,0-4.31,1.93-4.31,4.31s1.93,4.31,4.31,4.31c1.93,0,3.57-1.27,4.12-3.02H24.47c.35,0,.69-.14,.94-.39l8.34-8.34h44.56l5.66,5.66c.25,.25,.59,.39,.94,.39h44.47l23.68,23.68c-.3,.59-.47,1.25-.47,1.96,0,2.38,1.93,4.31,4.31,4.31s4.31-1.93,4.31-4.31-1.93-4.31-4.31-4.31c-.71,0-1.37,.17-1.96,.47l-24.07-24.07Z"/><path class="cls-4" d="M25.08,194.79c-.35,0-.69,.14-.94,.39l-14.26,14.26c-.25,.25-.39,.59-.39,.94v13.08c-1.73,.56-2.98,2.18-2.98,4.1,0,2.38,1.93,4.31,4.31,4.31s4.31-1.93,4.31-4.31c0-1.92-1.25-3.54-2.98-4.1v-12.54l13.48-13.48h15.71c.35,0,.69-.14,.94-.39l7.39-7.39H185.81c.56,1.73,2.18,2.98,4.1,2.98,2.38,0,4.31-1.93,4.31-4.31s-1.93-4.31-4.31-4.31c-1.92,0-3.54,1.25-4.1,2.98H49.11c-.35,0-.69,.14-.94,.39l-7.39,7.39h-15.71Z"/><path class="cls-4" d="M-23.7,284.95c1.92,0,3.54-1.25,4.1-2.98H-9.13c.35,0,.69-.14,.94-.39l14.57-14.57H86.03c.56,1.73,2.18,2.98,4.1,2.98,2.38,0,4.31-1.93,4.31-4.31s-1.93-4.31-4.31-4.31c-1.92,0-3.54,1.25-4.1,2.98H5.82c-.35,0-.69,.14-.94,.39l-14.57,14.57h-9.92c-.56-1.73-2.18-2.98-4.1-2.98-2.38,0-4.31,1.93-4.31,4.31s1.93,4.31,4.31,4.31Z"/><path class="cls-4" d="M-17.29,249.18c1.8,0,3.35-1.11,3.99-2.68H26.28c.35,0,.69-.14,.94-.39l7.3-7.3h44.13l5.23,5.23c.25,.25,.59,.39,.94,.39h40.83l17.68,17.68c-.3,.59-.47,1.25-.47,1.96,0,2.38,1.93,4.31,4.31,4.31s4.31-1.93,4.31-4.31-1.93-4.31-4.31-4.31c-.71,0-1.37,.17-1.96,.47l-18.07-18.07c-.25-.25-.59-.39-.94-.39h-40.83l-5.23-5.23c-.25-.25-.59-.39-.94-.39H33.97c-.35,0-.69,.14-.94,.39l-7.3,7.3H-13.11c-.46-1.89-2.16-3.29-4.18-3.29-2.38,0-4.31,1.93-4.31,4.31s1.93,4.31,4.31,4.31Z"/><path class="cls-4" d="M189.91,195.52c-1.92,0-3.54,1.25-4.1,2.98H81.41c-.35,0-.69,.14-.94,.39l-10.73,10.73H34.86c-.56-1.73-2.18-2.98-4.1-2.98-2.38,0-4.31,1.93-4.31,4.31s1.93,4.31,4.31,4.31c1.92,0,3.54-1.25,4.1-2.98h35.43c.35,0,.69-.14,.94-.39l10.73-10.73h103.86c.56,1.73,2.18,2.98,4.1,2.98,2.38,0,4.31-1.93,4.31-4.31s-1.93-4.31-4.31-4.31Z"/><path class="cls-4" d="M141.87,223.33c-1.92,0-3.54,1.25-4.1,2.98h-49.78l-5.32-5.32c-.25-.25-.59-.39-.94-.39h-30.09c-.56-1.74-2.18-3-4.11-3-2.38,0-4.31,1.93-4.31,4.31s1.93,4.31,4.31,4.31c1.91,0,3.53-1.25,4.1-2.97h29.55l5.32,5.32c.25,.25,.59,.39,.94,.39h50.33c.56,1.73,2.18,2.98,4.1,2.98,2.38,0,4.31-1.93,4.31-4.31s-1.93-4.31-4.31-4.31Z"/><path class="cls-4" d="M100.74,278.57c2.38,0,4.31-1.93,4.31-4.31s-1.93-4.31-4.31-4.31c-1.92,0-3.54,1.25-4.1,2.98H10.54c-.35,0-.69,.14-.94,.39l-17.15,17.15H-27.97l-8.44-8.44c.23-.53,.36-1.11,.36-1.73,0-2.38-1.93-4.31-4.31-4.31s-4.31,1.93-4.31,4.31,1.93,4.31,4.31,4.31c.8,0,1.54-.22,2.18-.6l8.72,8.72c.25,.25,.59,.39,.94,.39H-7c.35,0,.69-.14,.94-.39l17.15-17.15H96.64c.56,1.73,2.18,2.98,4.1,2.98Z"/><path class="cls-4" d="M100.74,253.13c-1.92,0-3.54,1.25-4.1,2.98H-3.32c-.35,0-.69,.14-.94,.39l-6.24,6.24h-9.55c-.56-1.73-2.18-2.98-4.1-2.98-2.38,0-4.31,1.93-4.31,4.31s1.93,4.31,4.31,4.31c1.92,0,3.54-1.25,4.1-2.98H-9.95c.35,0,.69-.14,.94-.39l6.24-6.24H96.64c.56,1.73,2.18,2.98,4.1,2.98,2.38,0,4.31-1.93,4.31-4.31s-1.93-4.31-4.31-4.31Z"/><path class="cls-4" d="M77.39,290.39c-2.38,0-4.31,1.93-4.31,4.31s1.93,4.31,4.31,4.31c.71,0,1.37-.17,1.96-.47l13.82,13.82c.25,.25,.59,.39,.94,.39h27.32c.35,0,.69-.14,.94-.39l11.55-11.55c.54,.24,1.13,.38,1.75,.38,2.38,0,4.31-1.93,4.31-4.31s-1.93-4.31-4.31-4.31-4.31,1.93-4.31,4.31c0,.79,.21,1.52,.58,2.16l-11.06,11.06h-26.22l-13.43-13.43c.3-.59,.47-1.25,.47-1.96,0-2.38-1.93-4.31-4.31-4.31Z"/></g><g class="cls-2"><path class="cls-4" d="M571.08,168.53c-.42,0-.83-.17-1.12-.47l-13.14-13.14h-23.42l-20.9,20.9c.43,.75,.67,1.62,.67,2.54,0,2.85-2.31,5.17-5.17,5.17s-5.17-2.31-5.17-5.17,2.31-5.17,5.17-5.17c.77,0,1.5,.17,2.15,.47l21.46-21.46c.3-.3,.7-.47,1.12-.47h24.73c.42,0,.83,.17,1.12,.47l13.14,13.14h55.7c.42,0,.83,.17,1.12,.47l23.12,23.12h20.5l12.21-12.21c.3-.3,.7-.47,1.12-.47h11.79c.85-1.68,2.59-2.83,4.6-2.83,2.85,0,5.17,2.31,5.17,5.17s-2.31,5.17-5.17,5.17c-2.57,0-4.69-1.87-5.09-4.33h-10.64l-12.21,12.21c-.3,.3-.7,.47-1.12,.47h-21.82c-.42,0-.83-.17-1.12-.47l-23.12-23.12h-55.7Z"/><path class="cls-4" d="M667.45,125.49c-.42,0-.83-.17-1.12-.47l-5.55-5.55h-147.8l-20.78,20.78c.36,.71,.57,1.5,.57,2.35,0,2.85-2.31,5.17-5.17,5.17s-5.17-2.31-5.17-5.17,2.31-5.17,5.17-5.17c.85,0,1.64,.21,2.35,.57l21.25-21.25c.3-.3,.7-.47,1.12-.47h149.12c.42,0,.83,.17,1.12,.47l5.55,5.55h39.06c.55-2.27,2.58-3.96,5.02-3.96,2.85,0,5.17,2.31,5.17,5.17s-2.31,5.17-5.17,5.17c-2.16,0-4-1.32-4.78-3.2h-39.96Z"/><path class="cls-4" d="M569.4,177.81h17.08c.67-2.08,2.62-3.58,4.92-3.58,2.85,0,5.17,2.31,5.17,5.17s-2.31,5.17-5.17,5.17c-2.3,0-4.24-1.5-4.92-3.58h-16.42l-19.23,19.23c-.3,.3-.7,.47-1.12,.47h-62.01c-.42,0-.83-.17-1.12-.47l-14.91-14.91c-.66,.3-1.39,.48-2.16,.48-2.85,0-5.17-2.31-5.17-5.17s2.31-5.17,5.17-5.17,5.17,2.31,5.17,5.17c0,.92-.24,1.78-.67,2.53l14.35,14.35h60.69l19.23-19.23c.3-.3,.7-.47,1.12-.47Z"/><path class="cls-4" d="M577.79,192.34l-4.48,4.48c.41,.74,.64,1.59,.64,2.5,0,2.85-2.31,5.17-5.17,5.17s-5.17-2.31-5.17-5.17,2.31-5.17,5.17-5.17c.79,0,1.53,.18,2.2,.5l5.02-5.02c.3-.3,.7-.47,1.12-.47h51.75c.67-2.08,2.62-3.58,4.92-3.58,2.85,0,5.17,2.31,5.17,5.17s-2.31,5.17-5.17,5.17c-2.3,0-4.24-1.5-4.92-3.58h-51.09Z"/><path class="cls-4" d="M491.51,99.17c.3-.3,.7-.47,1.12-.47h53.3l6.79-6.79c.3-.3,.7-.47,1.12-.47h54.72c.42,0,.83,.17,1.12,.47l10,10h29.95c.69-2.05,2.62-3.53,4.9-3.53,2.85,0,5.17,2.31,5.17,5.17s-2.31,5.17-5.17,5.17c-2.32,0-4.28-1.52-4.93-3.63h-30.58c-.42,0-.83-.17-1.12-.47l-10-10h-53.41l-6.79,6.79c-.3,.3-.7,.47-1.12,.47h-53.3l-28.38,28.38c.36,.71,.57,1.5,.57,2.35,0,2.85-2.31,5.17-5.17,5.17s-5.17-2.31-5.17-5.17,2.31-5.17,5.17-5.17c.85,0,1.64,.21,2.35,.57l28.85-28.85Z"/><path class="cls-4" d="M618.31,50.86c.42,0,.83,.17,1.12,.47l17.09,17.09c.3,.3,.47,.7,.47,1.12v15.68c2.08,.67,3.58,2.62,3.58,4.92,0,2.85-2.31,5.17-5.17,5.17s-5.17-2.31-5.17-5.17c0-2.3,1.5-4.24,3.58-4.92v-15.02l-16.16-16.16h-18.83c-.42,0-.83-.17-1.12-.47l-8.85-8.85h-163.19c-.67,2.08-2.62,3.58-4.92,3.58-2.85,0-5.17-2.31-5.17-5.17s2.31-5.17,5.17-5.17c2.3,0,4.24,1.5,4.92,3.58h163.85c.42,0,.83,.17,1.12,.47l8.85,8.85h18.83Z"/><path class="cls-4" d="M676.78,158.91c-2.3,0-4.24-1.5-4.92-3.58h-12.55c-.42,0-.83-.17-1.12-.47l-17.46-17.46h-95.48c-.67,2.08-2.62,3.58-4.92,3.58-2.85,0-5.17-2.31-5.17-5.17s2.31-5.17,5.17-5.17c2.3,0,4.24,1.5,4.92,3.58h96.14c.42,0,.83,.17,1.12,.47l17.46,17.46h11.89c.67-2.08,2.62-3.58,4.92-3.58,2.85,0,5.17,2.31,5.17,5.17s-2.31,5.17-5.17,5.17Z"/><path class="cls-4" d="M669.09,116.05c-2.16,0-4.01-1.33-4.78-3.21h-47.44c-.42,0-.83-.17-1.12-.47l-8.75-8.75h-52.9l-6.27,6.27c-.3,.3-.7,.47-1.12,.47h-48.94l-21.19,21.19c.36,.71,.57,1.5,.57,2.35,0,2.85-2.31,5.17-5.17,5.17s-5.17-2.31-5.17-5.17,2.31-5.17,5.17-5.17c.85,0,1.64,.21,2.35,.57l21.66-21.66c.3-.3,.7-.47,1.12-.47h48.94l6.27-6.27c.3-.3,.7-.47,1.12-.47h54.21c.42,0,.83,.17,1.12,.47l8.75,8.75h46.55c.55-2.26,2.58-3.94,5.02-3.94,2.85,0,5.17,2.31,5.17,5.17s-2.31,5.17-5.17,5.17Z"/><path class="cls-4" d="M420.74,51.73c2.3,0,4.24,1.5,4.92,3.58h125.14c.42,0,.83,.17,1.12,.47l12.86,12.86h41.81c.67-2.08,2.62-3.58,4.92-3.58,2.85,0,5.17,2.31,5.17,5.17s-2.31,5.17-5.17,5.17c-2.3,0-4.24-1.5-4.92-3.58h-42.47c-.42,0-.83-.17-1.12-.47l-12.86-12.86h-124.48c-.67,2.08-2.62,3.58-4.92,3.58-2.85,0-5.17-2.31-5.17-5.17s2.31-5.17,5.17-5.17Z"/><path class="cls-4" d="M478.33,85.06c2.3,0,4.24,1.5,4.92,3.58h59.66l6.38-6.38c.3-.3,.7-.47,1.12-.47h36.07c.67-2.08,2.62-3.59,4.92-3.59,2.85,0,5.17,2.31,5.17,5.17s-2.31,5.17-5.17,5.17c-2.29,0-4.24-1.5-4.91-3.56h-35.42l-6.38,6.38c-.3,.3-.7,.47-1.12,.47h-60.32c-.67,2.08-2.62,3.58-4.92,3.58-2.85,0-5.17-2.31-5.17-5.17s2.31-5.17,5.17-5.17Z"/><path class="cls-4" d="M465.61,193.93c2.85,0,5.17,2.31,5.17,5.17,0,.91-.23,1.76-.64,2.5l11.33,11.33h89.65c.67-2.08,2.62-3.58,4.92-3.58,2.85,0,5.17,2.31,5.17,5.17s-2.31,5.17-5.17,5.17c-2.3,0-4.24-1.5-4.92-3.58h-90.31c-.42,0-.83-.17-1.12-.47l-11.87-11.87c-.67,.32-1.41,.5-2.2,.5-2.85,0-5.17-2.31-5.17-5.17s2.31-5.17,5.17-5.17Z"/><path class="cls-4" d="M527.62,151.26c-2.85,0-5.17-2.31-5.17-5.17s2.31-5.17,5.17-5.17c2.3,0,4.24,1.5,4.92,3.58h103.2c.42,0,.83,.17,1.12,.47l20.56,20.56h24.48l10.12-10.12c-.28-.64-.44-1.34-.44-2.07,0-2.85,2.31-5.17,5.17-5.17s5.17,2.31,5.17,5.17-2.31,5.17-5.17,5.17c-.95,0-1.85-.26-2.61-.71l-10.45,10.45c-.3,.3-.7,.47-1.12,.47h-25.79c-.42,0-.83-.17-1.12-.47l-20.56-20.56h-102.55c-.67,2.08-2.62,3.58-4.92,3.58Z"/><path class="cls-4" d="M527.62,120.77c2.3,0,4.24,1.5,4.92,3.58h119.81c.42,0,.83,.17,1.12,.47l7.48,7.48h11.44c.67-2.08,2.62-3.58,4.92-3.58,2.85,0,5.17,2.31,5.17,5.17s-2.31,5.17-5.17,5.17c-2.3,0-4.24-1.5-4.92-3.58h-12.1c-.42,0-.83-.17-1.12-.47l-7.48-7.48h-119.15c-.67,2.08-2.62,3.58-4.92,3.58-2.85,0-5.17-2.31-5.17-5.17s2.31-5.17,5.17-5.17Z"/><path class="cls-4" d="M555.6,165.43c2.85,0,5.17,2.31,5.17,5.17s-2.31,5.17-5.17,5.17c-.85,0-1.64-.21-2.35-.57l-16.56,16.56c-.3,.3-.7,.47-1.12,.47h-32.75c-.42,0-.83-.17-1.12-.47l-13.84-13.84c-.64,.29-1.35,.45-2.1,.45-2.85,0-5.17-2.31-5.17-5.17s2.31-5.17,5.17-5.17,5.17,2.31,5.17,5.17c0,.94-.26,1.83-.7,2.59l13.26,13.26h31.43l16.1-16.1c-.36-.71-.57-1.5-.57-2.35,0-2.85,2.31-5.17,5.17-5.17Z"/><path class="cls-4" d="M465.61,216.1c2.3,0,4.24,1.5,4.92,3.58h89.16c.42,0,.83,.17,1.12,.47l4.73,4.73c.57-.22,1.18-.34,1.83-.34,2.85,0,5.17,2.31,5.17,5.17s-2.31,5.17-5.17,5.17-5.17-2.31-5.17-5.17c0-1.04,.31-2.01,.84-2.83l-4.02-4.02h-88.5c-.67,2.08-2.62,3.58-4.92,3.58-2.85,0-5.17-2.31-5.17-5.17s2.31-5.17,5.17-5.17Z"/></g></g></g></svg>